<svg width="102" height="102" xmlns="http://www.w3.org/2000/svg">

 <g>
  <title>background</title>
  <rect fill="none" id="canvas_background" height="104" width="104" y="-1" x="-1"/>
 </g>
 <g>
  <title>Layer 1</title>
  <path id="svg_1" d="m51,1c-27.615999,0.004 -49.996,22.384001 -50,50.000999c0.004,27.615997 22.384001,49.996002 50,49.999001c27.616997,-0.002998 49.996002,-22.383003 50,-49.999001c-0.003998,-27.616999 -22.383003,-49.997 -50,-50.000999zm26.611,76.612c-6.829002,6.82 -16.199001,11.018997 -26.611,11.022003c-10.410999,-0.003006 -19.781,-4.202003 -26.610001,-11.021004c-6.82,-6.830002 -11.020999,-16.200001 -11.021999,-26.611c0.001,-10.412998 4.201,-19.782 11.021999,-26.612c6.829,-6.82 16.199001,-11.020999 26.610001,-11.023c10.411999,0.003 19.781998,4.203 26.611,11.023c6.82,6.83 11.019997,16.199001 11.022003,26.611c-0.002007,10.410999 -4.201004,19.780998 -11.022003,26.611zm-7.316002,-45.907c-2.564995,-2.565001 -6.724998,-2.565001 -9.289997,0l-10.005001,10.004999l-10.005001,-10.004999c-2.564999,-2.565001 -6.724998,-2.565001 -9.289999,0c-2.566,2.565001 -2.566,6.726 0,9.289999l10.004,10.006001l-10.004,10.004002c-2.566,2.565998 -2.566,6.726002 0,9.290997c1.282,1.282005 2.963999,1.925003 4.644999,1.925003c1.682003,0 3.362003,-0.642998 4.646,-1.925003l10.004002,-10.004997l10.005001,10.004997c1.281998,1.282005 2.964001,1.925003 4.646,1.925003c1.681,0 3.362,-0.642998 4.644997,-1.925003c2.566002,-2.564995 2.566002,-6.724998 0,-9.290997l-10.005997,-10.004002l10.004997,-10.006001c2.566002,-2.563999 2.566002,-6.723999 0,-9.289999z"/>
 </g>
</svg>