<svg width="22" height="22" viewBox="0 0 22 22" xmlns="http://www.w3.org/2000/svg"><title>Vault Logo</title><path d="M0 0l10.692 21.462L21.462 0H0zm11.964 5.55h1.244V4.308h-1.244v1.244-.002zm-1.855 0h1.243V4.308H10.11v1.244l-.001-.002zm-1.866 0h1.244V4.308H8.243v1.244-.002zm3.721 1.867h1.244V6.174h-1.244v1.243zm-1.855 0h1.243V6.174H10.11v1.243h-.001zm-1.866 0h1.244V6.174H8.243v1.243zm3.732 1.867h1.243V8.04h-1.243v1.244zm-1.866 0h1.243V8.04H10.11v1.244h-.001zm-1.866 0h1.244V8.04H8.243v1.244zm1.866 1.866h1.243V9.906H10.11v1.244h-.001z" fill="#000" fill-rule="evenodd"/></svg>